<?xml version="1.0" standalone="no"?>
<!DOCTYPE svg PUBLIC "-//W3C//DTD SVG 20010904//EN"
 "http://www.w3.org/TR/2001/REC-SVG-20010904/DTD/svg10.dtd">
<svg version="1.0" xmlns="http://www.w3.org/2000/svg"
 width="208.000000pt" height="254.000000pt" viewBox="0 0 208.000000 254.000000"
 preserveAspectRatio="xMidYMid meet">

<g transform="translate(0.000000,254.000000) scale(0.100000,-0.100000)"
fill="#000000" stroke="none">
<path d="M200 1221 l0 -1151 280 0 280 0 0 359 0 358 253 6 c266 5 330 15 470
67 143 54 277 178 356 330 65 124 83 197 88 351 6 158 -5 238 -48 350 -76 197
-218 344 -394 408 -162 58 -218 63 -777 68 l-508 5 0 -1151z m975 614 c128
-34 186 -106 193 -240 7 -138 -43 -219 -163 -264 -50 -19 -81 -22 -249 -24
l-191 -2 -3 273 -2 272 178 0 c128 0 194 -4 237 -15z"/>
</g>
</svg>
